<!-- Generated by IcoMoon.io -->
<svg version="1.1" xmlns="http://www.w3.org/2000/svg" width="34" height="32" viewBox="0 0 34 32">
<title>check-focus</title>
<path fill="#06c" d="M29.811 32h-25.937c-2.189 0-3.874-1.684-3.874-3.874v-24.253c0-2.189 1.684-3.874 3.874-3.874h25.768c2.358 0 4.042 1.684 4.042 3.874v24.084c0 2.358-1.684 4.042-3.874 4.042z"></path>
<path fill="#fff" d="M5.053 5.053h23.579v21.895h-23.579v-21.895z"></path>
<path fill="#212121" d="M27.284 6.232v19.705h-20.884v-19.705h20.884zM27.284 3.368h-20.884c-1.684 0-3.032 1.347-3.032 2.863v19.705c0 1.347 1.347 2.695 3.032 2.695h20.884c1.684 0 3.032-1.347 3.032-2.863v-19.537c0-1.516-1.347-2.863-3.032-2.863z"></path>
</svg>
