<svg xmlns="http://www.w3.org/2000/svg" style="enable-background:new 0 0 20 19" xml:space="preserve" width="20" height="19"><rect width="100%" height="100%" fill="none"/><g class="currentLayer"><path d="M17.7 19H2.3C1 19 0 18 0 16.7V2.3C0 1 1 0 2.3 0h15.3C19 0 20 1 20 2.3v14.3c0 1.4-1 2.4-2.3 2.4z" style="fill:#06c"/><path d="M3 3h14v13H3V3z" style="fill:#fff"/><path d="M16.2 3.7v11.7H3.8V3.7h12.4zm0-1.7H3.8C2.8 2 2 2.8 2 3.7v11.7c0 .8.8 1.6 1.8 1.6h12.4c1 0 1.8-.8 1.8-1.7V3.7c0-.9-.8-1.7-1.8-1.7z" style="fill:#212121"/></g></svg>